<mxfile host="app.diagrams.net" modified="2023-08-16T10:00:38.186Z" agent="Mozilla/5.0 (X11; Linux x86_64) AppleWebKit/537.36 (KHTML, like Gecko) Chrome/115.0.0.0 Safari/537.36" etag="bOluBa3ZckLChbFU8ZBz" version="21.6.8" type="device">
  <diagram name="Page-1" id="EPx_cnRlCLuwBNukogZC">
    <mxGraphModel dx="1318" dy="572" grid="1" gridSize="10" guides="1" tooltips="1" connect="1" arrows="1" fold="1" page="1" pageScale="1" pageWidth="1100" pageHeight="850" math="0" shadow="0">
      <root>
        <mxCell id="0" />
        <mxCell id="1" parent="0" />
        <mxCell id="mCKc3-viKdBl-PzMDCNq-1" value="" style="rounded=0;whiteSpace=wrap;html=1;" parent="1" vertex="1">
          <mxGeometry x="40" y="80" width="210" height="500" as="geometry" />
        </mxCell>
        <mxCell id="mCKc3-viKdBl-PzMDCNq-2" value="" style="rounded=0;whiteSpace=wrap;html=1;" parent="1" vertex="1">
          <mxGeometry x="250" y="80" width="640" height="670" as="geometry" />
        </mxCell>
        <mxCell id="mCKc3-viKdBl-PzMDCNq-3" value="STACK" style="text;html=1;strokeColor=none;fillColor=none;align=center;verticalAlign=middle;whiteSpace=wrap;rounded=0;fontFamily=Ubuntu;fontSource=https%3A%2F%2Ffonts.googleapis.com%2Fcss%3Ffamily%3DUbuntu;fontSize=17;fontStyle=1" parent="1" vertex="1">
          <mxGeometry x="90" y="770" width="60" height="30" as="geometry" />
        </mxCell>
        <mxCell id="mCKc3-viKdBl-PzMDCNq-4" value="HEAP" style="text;html=1;strokeColor=none;fillColor=none;align=center;verticalAlign=middle;whiteSpace=wrap;rounded=0;fontFamily=Ubuntu;fontSource=https%3A%2F%2Ffonts.googleapis.com%2Fcss%3Ffamily%3DUbuntu;fontSize=17;fontStyle=1" parent="1" vertex="1">
          <mxGeometry x="555" y="780" width="60" height="30" as="geometry" />
        </mxCell>
        <mxCell id="mCKc3-viKdBl-PzMDCNq-5" value="main thread" style="shape=hexagon;perimeter=hexagonPerimeter2;whiteSpace=wrap;html=1;fixedSize=1;fontFamily=Ubuntu;fontSource=https%3A%2F%2Ffonts.googleapis.com%2Fcss%3Ffamily%3DUbuntu;fontSize=16;" parent="1" vertex="1">
          <mxGeometry x="90" y="30" width="120" height="40" as="geometry" />
        </mxCell>
        <mxCell id="mCKc3-viKdBl-PzMDCNq-6" value="" style="rounded=0;whiteSpace=wrap;html=1;fillColor=#d5e8d4;strokeColor=#82b366;strokeWidth=7;" parent="1" vertex="1">
          <mxGeometry x="40" y="550" width="210" height="200" as="geometry" />
        </mxCell>
        <mxCell id="mCKc3-viKdBl-PzMDCNq-7" value="main()" style="text;html=1;strokeColor=none;fillColor=none;align=center;verticalAlign=middle;whiteSpace=wrap;rounded=0;fontFamily=Ubuntu;fontSource=https%3A%2F%2Ffonts.googleapis.com%2Fcss%3Ffamily%3DUbuntu;fontSize=16;rotation=-90;" parent="1" vertex="1">
          <mxGeometry x="-10" y="635" width="60" height="30" as="geometry" />
        </mxCell>
        <mxCell id="4eZcD29v7aRzUJQJVhYH-80" style="edgeStyle=orthogonalEdgeStyle;rounded=0;orthogonalLoop=1;jettySize=auto;html=1;entryX=0;entryY=0.5;entryDx=0;entryDy=0;" edge="1" parent="1" source="mCKc3-viKdBl-PzMDCNq-9" target="4eZcD29v7aRzUJQJVhYH-78">
          <mxGeometry relative="1" as="geometry">
            <Array as="points">
              <mxPoint x="320" y="610" />
              <mxPoint x="320" y="525" />
            </Array>
          </mxGeometry>
        </mxCell>
        <mxCell id="mCKc3-viKdBl-PzMDCNq-9" value="int[] row1 = 0xAF14" style="rounded=0;whiteSpace=wrap;html=1;fontFamily=Ubuntu;fontSource=https%3A%2F%2Ffonts.googleapis.com%2Fcss%3Ffamily%3DUbuntu;fontSize=16;" parent="1" vertex="1">
          <mxGeometry x="40" y="590" width="210" height="40" as="geometry" />
        </mxCell>
        <mxCell id="4eZcD29v7aRzUJQJVhYH-69" style="edgeStyle=orthogonalEdgeStyle;rounded=0;orthogonalLoop=1;jettySize=auto;html=1;entryX=0;entryY=0.5;entryDx=0;entryDy=0;exitX=1;exitY=0.5;exitDx=0;exitDy=0;fillColor=#a20025;strokeColor=#6F0000;strokeWidth=6;" edge="1" parent="1" source="mCKc3-viKdBl-PzMDCNq-11" target="4eZcD29v7aRzUJQJVhYH-30">
          <mxGeometry relative="1" as="geometry">
            <Array as="points">
              <mxPoint x="300" y="570" />
              <mxPoint x="300" y="115" />
            </Array>
          </mxGeometry>
        </mxCell>
        <mxCell id="mCKc3-viKdBl-PzMDCNq-11" value="int[][] my2DArray = 0xAF10" style="rounded=0;whiteSpace=wrap;html=1;fontFamily=Ubuntu;fontSource=https%3A%2F%2Ffonts.googleapis.com%2Fcss%3Ffamily%3DUbuntu;fontSize=16;" parent="1" vertex="1">
          <mxGeometry x="40" y="550" width="210" height="40" as="geometry" />
        </mxCell>
        <mxCell id="4eZcD29v7aRzUJQJVhYH-4" value="..." style="rounded=0;whiteSpace=wrap;html=1;fontFamily=Ubuntu;fontSource=https%3A%2F%2Ffonts.googleapis.com%2Fcss%3Ffamily%3DUbuntu;fontSize=16;" vertex="1" parent="1">
          <mxGeometry x="40" y="710" width="210" height="40" as="geometry" />
        </mxCell>
        <mxCell id="4eZcD29v7aRzUJQJVhYH-115" style="edgeStyle=orthogonalEdgeStyle;rounded=0;orthogonalLoop=1;jettySize=auto;html=1;entryX=0.5;entryY=0;entryDx=0;entryDy=0;" edge="1" parent="1" source="4eZcD29v7aRzUJQJVhYH-5" target="4eZcD29v7aRzUJQJVhYH-100">
          <mxGeometry relative="1" as="geometry">
            <Array as="points">
              <mxPoint x="290" y="690" />
              <mxPoint x="290" y="490" />
              <mxPoint x="780" y="490" />
            </Array>
          </mxGeometry>
        </mxCell>
        <mxCell id="4eZcD29v7aRzUJQJVhYH-5" value="int[] row3 = 0xAF16" style="rounded=0;whiteSpace=wrap;html=1;fontFamily=Ubuntu;fontSource=https%3A%2F%2Ffonts.googleapis.com%2Fcss%3Ffamily%3DUbuntu;fontSize=16;" vertex="1" parent="1">
          <mxGeometry x="40" y="670" width="210" height="40" as="geometry" />
        </mxCell>
        <mxCell id="4eZcD29v7aRzUJQJVhYH-91" style="edgeStyle=orthogonalEdgeStyle;rounded=0;orthogonalLoop=1;jettySize=auto;html=1;entryX=0.25;entryY=0;entryDx=0;entryDy=0;" edge="1" parent="1" source="4eZcD29v7aRzUJQJVhYH-6" target="4eZcD29v7aRzUJQJVhYH-89">
          <mxGeometry relative="1" as="geometry">
            <Array as="points">
              <mxPoint x="310" y="650" />
              <mxPoint x="310" y="490" />
              <mxPoint x="548" y="490" />
            </Array>
          </mxGeometry>
        </mxCell>
        <mxCell id="4eZcD29v7aRzUJQJVhYH-6" value="int[] row2 = 0xAF15" style="rounded=0;whiteSpace=wrap;html=1;fontFamily=Ubuntu;fontSource=https%3A%2F%2Ffonts.googleapis.com%2Fcss%3Ffamily%3DUbuntu;fontSize=16;" vertex="1" parent="1">
          <mxGeometry x="40" y="630" width="210" height="40" as="geometry" />
        </mxCell>
        <mxCell id="4eZcD29v7aRzUJQJVhYH-116" style="edgeStyle=orthogonalEdgeStyle;rounded=0;orthogonalLoop=1;jettySize=auto;html=1;" edge="1" parent="1" source="4eZcD29v7aRzUJQJVhYH-9" target="4eZcD29v7aRzUJQJVhYH-78">
          <mxGeometry relative="1" as="geometry">
            <Array as="points">
              <mxPoint x="320" y="155" />
              <mxPoint x="320" y="525" />
            </Array>
          </mxGeometry>
        </mxCell>
        <mxCell id="4eZcD29v7aRzUJQJVhYH-9" value="0xAF14" style="rounded=0;whiteSpace=wrap;html=1;fontFamily=Ubuntu;fontSource=https%3A%2F%2Ffonts.googleapis.com%2Fcss%3Ffamily%3DUbuntu;fontSize=16;" vertex="1" parent="1">
          <mxGeometry x="400" y="130" width="90" height="50" as="geometry" />
        </mxCell>
        <mxCell id="4eZcD29v7aRzUJQJVhYH-10" value="0xAF15" style="rounded=0;whiteSpace=wrap;html=1;fontFamily=Ubuntu;fontSource=https%3A%2F%2Ffonts.googleapis.com%2Fcss%3Ffamily%3DUbuntu;fontSize=16;" vertex="1" parent="1">
          <mxGeometry x="490" y="130" width="90" height="50" as="geometry" />
        </mxCell>
        <mxCell id="4eZcD29v7aRzUJQJVhYH-118" style="edgeStyle=orthogonalEdgeStyle;rounded=0;orthogonalLoop=1;jettySize=auto;html=1;entryX=0.845;entryY=-0.067;entryDx=0;entryDy=0;entryPerimeter=0;" edge="1" parent="1" source="4eZcD29v7aRzUJQJVhYH-11" target="4eZcD29v7aRzUJQJVhYH-100">
          <mxGeometry relative="1" as="geometry" />
        </mxCell>
        <mxCell id="4eZcD29v7aRzUJQJVhYH-11" value="0xAF16" style="rounded=0;whiteSpace=wrap;html=1;fontFamily=Ubuntu;fontSource=https%3A%2F%2Ffonts.googleapis.com%2Fcss%3Ffamily%3DUbuntu;fontSize=16;" vertex="1" parent="1">
          <mxGeometry x="580" y="130" width="90" height="50" as="geometry" />
        </mxCell>
        <mxCell id="4eZcD29v7aRzUJQJVhYH-12" value="[0] : int[]" style="rounded=0;whiteSpace=wrap;html=1;fontFamily=Ubuntu;fontSource=https%3A%2F%2Ffonts.googleapis.com%2Fcss%3Ffamily%3DUbuntu;fontSize=16;" vertex="1" parent="1">
          <mxGeometry x="400" y="180" width="90" height="30" as="geometry" />
        </mxCell>
        <mxCell id="4eZcD29v7aRzUJQJVhYH-13" value="[1] : int[]" style="rounded=0;whiteSpace=wrap;html=1;fontFamily=Ubuntu;fontSource=https%3A%2F%2Ffonts.googleapis.com%2Fcss%3Ffamily%3DUbuntu;fontSize=16;" vertex="1" parent="1">
          <mxGeometry x="490" y="180" width="90" height="30" as="geometry" />
        </mxCell>
        <mxCell id="4eZcD29v7aRzUJQJVhYH-14" value="[2] : int[]" style="rounded=0;whiteSpace=wrap;html=1;fontFamily=Ubuntu;fontSource=https%3A%2F%2Ffonts.googleapis.com%2Fcss%3Ffamily%3DUbuntu;fontSize=16;" vertex="1" parent="1">
          <mxGeometry x="580" y="180" width="90" height="30" as="geometry" />
        </mxCell>
        <mxCell id="4eZcD29v7aRzUJQJVhYH-15" value="int length = 3" style="rounded=0;whiteSpace=wrap;html=1;fontFamily=Ubuntu;fontSource=https%3A%2F%2Ffonts.googleapis.com%2Fcss%3Ffamily%3DUbuntu;fontSize=17;" vertex="1" parent="1">
          <mxGeometry x="400" y="210" width="270" height="30" as="geometry" />
        </mxCell>
        <mxCell id="4eZcD29v7aRzUJQJVhYH-16" value="..." style="rounded=0;whiteSpace=wrap;html=1;fontFamily=Ubuntu;fontSource=https%3A%2F%2Ffonts.googleapis.com%2Fcss%3Ffamily%3DUbuntu;fontSize=17;" vertex="1" parent="1">
          <mxGeometry x="400" y="240" width="270" height="30" as="geometry" />
        </mxCell>
        <mxCell id="4eZcD29v7aRzUJQJVhYH-30" value="0xAF10" style="rounded=0;whiteSpace=wrap;html=1;fontFamily=Ubuntu;fontSource=https%3A%2F%2Ffonts.googleapis.com%2Fcss%3Ffamily%3DUbuntu;fontSize=17;fillColor=#d5e8d4;strokeColor=#82b366;" vertex="1" parent="1">
          <mxGeometry x="400" y="100" width="270" height="30" as="geometry" />
        </mxCell>
        <mxCell id="4eZcD29v7aRzUJQJVhYH-45" value="" style="group" vertex="1" connectable="0" parent="1">
          <mxGeometry x="340" y="330" width="150" height="150" as="geometry" />
        </mxCell>
        <mxCell id="4eZcD29v7aRzUJQJVhYH-32" value="0" style="rounded=0;whiteSpace=wrap;html=1;fontFamily=Ubuntu;fontSource=https%3A%2F%2Ffonts.googleapis.com%2Fcss%3Ffamily%3DUbuntu;fontSize=16;" vertex="1" parent="4eZcD29v7aRzUJQJVhYH-45">
          <mxGeometry y="30" width="50" height="40" as="geometry" />
        </mxCell>
        <mxCell id="4eZcD29v7aRzUJQJVhYH-33" value="0" style="rounded=0;whiteSpace=wrap;html=1;fontFamily=Ubuntu;fontSource=https%3A%2F%2Ffonts.googleapis.com%2Fcss%3Ffamily%3DUbuntu;fontSize=16;" vertex="1" parent="4eZcD29v7aRzUJQJVhYH-45">
          <mxGeometry x="50" y="30" width="50" height="40" as="geometry" />
        </mxCell>
        <mxCell id="4eZcD29v7aRzUJQJVhYH-34" value="0" style="rounded=0;whiteSpace=wrap;html=1;fontFamily=Ubuntu;fontSource=https%3A%2F%2Ffonts.googleapis.com%2Fcss%3Ffamily%3DUbuntu;fontSize=16;" vertex="1" parent="4eZcD29v7aRzUJQJVhYH-45">
          <mxGeometry x="100" y="30" width="50" height="40" as="geometry" />
        </mxCell>
        <mxCell id="4eZcD29v7aRzUJQJVhYH-35" value="[0] : int" style="rounded=0;whiteSpace=wrap;html=1;fontFamily=Ubuntu;fontSource=https%3A%2F%2Ffonts.googleapis.com%2Fcss%3Ffamily%3DUbuntu;fontSize=14;" vertex="1" parent="4eZcD29v7aRzUJQJVhYH-45">
          <mxGeometry y="70" width="50" height="20" as="geometry" />
        </mxCell>
        <mxCell id="4eZcD29v7aRzUJQJVhYH-36" value="[1] : int" style="rounded=0;whiteSpace=wrap;html=1;fontFamily=Ubuntu;fontSource=https%3A%2F%2Ffonts.googleapis.com%2Fcss%3Ffamily%3DUbuntu;fontSize=14;" vertex="1" parent="4eZcD29v7aRzUJQJVhYH-45">
          <mxGeometry x="50" y="70" width="50" height="20" as="geometry" />
        </mxCell>
        <mxCell id="4eZcD29v7aRzUJQJVhYH-37" value="[2] : int" style="rounded=0;whiteSpace=wrap;html=1;fontFamily=Ubuntu;fontSource=https%3A%2F%2Ffonts.googleapis.com%2Fcss%3Ffamily%3DUbuntu;fontSize=14;" vertex="1" parent="4eZcD29v7aRzUJQJVhYH-45">
          <mxGeometry x="100" y="70" width="50" height="20" as="geometry" />
        </mxCell>
        <mxCell id="4eZcD29v7aRzUJQJVhYH-39" value="int length = 3" style="rounded=0;whiteSpace=wrap;html=1;fontFamily=Ubuntu;fontSource=https%3A%2F%2Ffonts.googleapis.com%2Fcss%3Ffamily%3DUbuntu;fontSize=17;" vertex="1" parent="4eZcD29v7aRzUJQJVhYH-45">
          <mxGeometry y="90" width="150" height="30" as="geometry" />
        </mxCell>
        <mxCell id="4eZcD29v7aRzUJQJVhYH-40" value="0xAF11" style="rounded=0;whiteSpace=wrap;html=1;fontFamily=Ubuntu;fontSource=https%3A%2F%2Ffonts.googleapis.com%2Fcss%3Ffamily%3DUbuntu;fontSize=17;fillColor=#d5e8d4;strokeColor=#82b366;" vertex="1" parent="4eZcD29v7aRzUJQJVhYH-45">
          <mxGeometry width="150" height="30" as="geometry" />
        </mxCell>
        <mxCell id="4eZcD29v7aRzUJQJVhYH-43" value="..." style="rounded=0;whiteSpace=wrap;html=1;fontFamily=Ubuntu;fontSource=https%3A%2F%2Ffonts.googleapis.com%2Fcss%3Ffamily%3DUbuntu;fontSize=17;" vertex="1" parent="4eZcD29v7aRzUJQJVhYH-45">
          <mxGeometry y="120" width="150" height="30" as="geometry" />
        </mxCell>
        <mxCell id="4eZcD29v7aRzUJQJVhYH-46" value="" style="group" vertex="1" connectable="0" parent="1">
          <mxGeometry x="510" y="330" width="150" height="150" as="geometry" />
        </mxCell>
        <mxCell id="4eZcD29v7aRzUJQJVhYH-47" value="0" style="rounded=0;whiteSpace=wrap;html=1;fontFamily=Ubuntu;fontSource=https%3A%2F%2Ffonts.googleapis.com%2Fcss%3Ffamily%3DUbuntu;fontSize=16;" vertex="1" parent="4eZcD29v7aRzUJQJVhYH-46">
          <mxGeometry y="30" width="50" height="40" as="geometry" />
        </mxCell>
        <mxCell id="4eZcD29v7aRzUJQJVhYH-48" value="0" style="rounded=0;whiteSpace=wrap;html=1;fontFamily=Ubuntu;fontSource=https%3A%2F%2Ffonts.googleapis.com%2Fcss%3Ffamily%3DUbuntu;fontSize=16;" vertex="1" parent="4eZcD29v7aRzUJQJVhYH-46">
          <mxGeometry x="50" y="30" width="50" height="40" as="geometry" />
        </mxCell>
        <mxCell id="4eZcD29v7aRzUJQJVhYH-49" value="0" style="rounded=0;whiteSpace=wrap;html=1;fontFamily=Ubuntu;fontSource=https%3A%2F%2Ffonts.googleapis.com%2Fcss%3Ffamily%3DUbuntu;fontSize=16;" vertex="1" parent="4eZcD29v7aRzUJQJVhYH-46">
          <mxGeometry x="100" y="30" width="50" height="40" as="geometry" />
        </mxCell>
        <mxCell id="4eZcD29v7aRzUJQJVhYH-50" value="[0] : int" style="rounded=0;whiteSpace=wrap;html=1;fontFamily=Ubuntu;fontSource=https%3A%2F%2Ffonts.googleapis.com%2Fcss%3Ffamily%3DUbuntu;fontSize=14;" vertex="1" parent="4eZcD29v7aRzUJQJVhYH-46">
          <mxGeometry y="70" width="50" height="20" as="geometry" />
        </mxCell>
        <mxCell id="4eZcD29v7aRzUJQJVhYH-51" value="[1] : int" style="rounded=0;whiteSpace=wrap;html=1;fontFamily=Ubuntu;fontSource=https%3A%2F%2Ffonts.googleapis.com%2Fcss%3Ffamily%3DUbuntu;fontSize=14;" vertex="1" parent="4eZcD29v7aRzUJQJVhYH-46">
          <mxGeometry x="50" y="70" width="50" height="20" as="geometry" />
        </mxCell>
        <mxCell id="4eZcD29v7aRzUJQJVhYH-52" value="[2] : int" style="rounded=0;whiteSpace=wrap;html=1;fontFamily=Ubuntu;fontSource=https%3A%2F%2Ffonts.googleapis.com%2Fcss%3Ffamily%3DUbuntu;fontSize=14;" vertex="1" parent="4eZcD29v7aRzUJQJVhYH-46">
          <mxGeometry x="100" y="70" width="50" height="20" as="geometry" />
        </mxCell>
        <mxCell id="4eZcD29v7aRzUJQJVhYH-53" value="int length = 3" style="rounded=0;whiteSpace=wrap;html=1;fontFamily=Ubuntu;fontSource=https%3A%2F%2Ffonts.googleapis.com%2Fcss%3Ffamily%3DUbuntu;fontSize=17;" vertex="1" parent="4eZcD29v7aRzUJQJVhYH-46">
          <mxGeometry y="90" width="150" height="30" as="geometry" />
        </mxCell>
        <mxCell id="4eZcD29v7aRzUJQJVhYH-54" value="0xAF12" style="rounded=0;whiteSpace=wrap;html=1;fontFamily=Ubuntu;fontSource=https%3A%2F%2Ffonts.googleapis.com%2Fcss%3Ffamily%3DUbuntu;fontSize=17;fillColor=#d5e8d4;strokeColor=#82b366;" vertex="1" parent="4eZcD29v7aRzUJQJVhYH-46">
          <mxGeometry width="150" height="30" as="geometry" />
        </mxCell>
        <mxCell id="4eZcD29v7aRzUJQJVhYH-55" value="..." style="rounded=0;whiteSpace=wrap;html=1;fontFamily=Ubuntu;fontSource=https%3A%2F%2Ffonts.googleapis.com%2Fcss%3Ffamily%3DUbuntu;fontSize=17;" vertex="1" parent="4eZcD29v7aRzUJQJVhYH-46">
          <mxGeometry y="120" width="150" height="30" as="geometry" />
        </mxCell>
        <mxCell id="4eZcD29v7aRzUJQJVhYH-56" value="" style="group" vertex="1" connectable="0" parent="1">
          <mxGeometry x="680" y="330" width="150" height="150" as="geometry" />
        </mxCell>
        <mxCell id="4eZcD29v7aRzUJQJVhYH-57" value="0" style="rounded=0;whiteSpace=wrap;html=1;fontFamily=Ubuntu;fontSource=https%3A%2F%2Ffonts.googleapis.com%2Fcss%3Ffamily%3DUbuntu;fontSize=16;" vertex="1" parent="4eZcD29v7aRzUJQJVhYH-56">
          <mxGeometry y="30" width="50" height="40" as="geometry" />
        </mxCell>
        <mxCell id="4eZcD29v7aRzUJQJVhYH-58" value="0" style="rounded=0;whiteSpace=wrap;html=1;fontFamily=Ubuntu;fontSource=https%3A%2F%2Ffonts.googleapis.com%2Fcss%3Ffamily%3DUbuntu;fontSize=16;" vertex="1" parent="4eZcD29v7aRzUJQJVhYH-56">
          <mxGeometry x="50" y="30" width="50" height="40" as="geometry" />
        </mxCell>
        <mxCell id="4eZcD29v7aRzUJQJVhYH-59" value="0" style="rounded=0;whiteSpace=wrap;html=1;fontFamily=Ubuntu;fontSource=https%3A%2F%2Ffonts.googleapis.com%2Fcss%3Ffamily%3DUbuntu;fontSize=16;" vertex="1" parent="4eZcD29v7aRzUJQJVhYH-56">
          <mxGeometry x="100" y="30" width="50" height="40" as="geometry" />
        </mxCell>
        <mxCell id="4eZcD29v7aRzUJQJVhYH-60" value="[0] : int" style="rounded=0;whiteSpace=wrap;html=1;fontFamily=Ubuntu;fontSource=https%3A%2F%2Ffonts.googleapis.com%2Fcss%3Ffamily%3DUbuntu;fontSize=14;" vertex="1" parent="4eZcD29v7aRzUJQJVhYH-56">
          <mxGeometry y="70" width="50" height="20" as="geometry" />
        </mxCell>
        <mxCell id="4eZcD29v7aRzUJQJVhYH-61" value="[1] : int" style="rounded=0;whiteSpace=wrap;html=1;fontFamily=Ubuntu;fontSource=https%3A%2F%2Ffonts.googleapis.com%2Fcss%3Ffamily%3DUbuntu;fontSize=14;" vertex="1" parent="4eZcD29v7aRzUJQJVhYH-56">
          <mxGeometry x="50" y="70" width="50" height="20" as="geometry" />
        </mxCell>
        <mxCell id="4eZcD29v7aRzUJQJVhYH-62" value="[2] : int" style="rounded=0;whiteSpace=wrap;html=1;fontFamily=Ubuntu;fontSource=https%3A%2F%2Ffonts.googleapis.com%2Fcss%3Ffamily%3DUbuntu;fontSize=14;" vertex="1" parent="4eZcD29v7aRzUJQJVhYH-56">
          <mxGeometry x="100" y="70" width="50" height="20" as="geometry" />
        </mxCell>
        <mxCell id="4eZcD29v7aRzUJQJVhYH-63" value="int length = 3" style="rounded=0;whiteSpace=wrap;html=1;fontFamily=Ubuntu;fontSource=https%3A%2F%2Ffonts.googleapis.com%2Fcss%3Ffamily%3DUbuntu;fontSize=17;" vertex="1" parent="4eZcD29v7aRzUJQJVhYH-56">
          <mxGeometry y="90" width="150" height="30" as="geometry" />
        </mxCell>
        <mxCell id="4eZcD29v7aRzUJQJVhYH-64" value="0xAF13" style="rounded=0;whiteSpace=wrap;html=1;fontFamily=Ubuntu;fontSource=https%3A%2F%2Ffonts.googleapis.com%2Fcss%3Ffamily%3DUbuntu;fontSize=17;fillColor=#d5e8d4;strokeColor=#82b366;" vertex="1" parent="4eZcD29v7aRzUJQJVhYH-56">
          <mxGeometry width="150" height="30" as="geometry" />
        </mxCell>
        <mxCell id="4eZcD29v7aRzUJQJVhYH-65" value="..." style="rounded=0;whiteSpace=wrap;html=1;fontFamily=Ubuntu;fontSource=https%3A%2F%2Ffonts.googleapis.com%2Fcss%3Ffamily%3DUbuntu;fontSize=17;" vertex="1" parent="4eZcD29v7aRzUJQJVhYH-56">
          <mxGeometry y="120" width="150" height="30" as="geometry" />
        </mxCell>
        <mxCell id="4eZcD29v7aRzUJQJVhYH-70" value="" style="group" vertex="1" connectable="0" parent="1">
          <mxGeometry x="340" y="510" width="150" height="150" as="geometry" />
        </mxCell>
        <mxCell id="4eZcD29v7aRzUJQJVhYH-71" value="2" style="rounded=0;whiteSpace=wrap;html=1;fontFamily=Ubuntu;fontSource=https%3A%2F%2Ffonts.googleapis.com%2Fcss%3Ffamily%3DUbuntu;fontSize=16;" vertex="1" parent="4eZcD29v7aRzUJQJVhYH-70">
          <mxGeometry y="30" width="50" height="40" as="geometry" />
        </mxCell>
        <mxCell id="4eZcD29v7aRzUJQJVhYH-72" value="3" style="rounded=0;whiteSpace=wrap;html=1;fontFamily=Ubuntu;fontSource=https%3A%2F%2Ffonts.googleapis.com%2Fcss%3Ffamily%3DUbuntu;fontSize=16;" vertex="1" parent="4eZcD29v7aRzUJQJVhYH-70">
          <mxGeometry x="50" y="30" width="50" height="40" as="geometry" />
        </mxCell>
        <mxCell id="4eZcD29v7aRzUJQJVhYH-73" value="5" style="rounded=0;whiteSpace=wrap;html=1;fontFamily=Ubuntu;fontSource=https%3A%2F%2Ffonts.googleapis.com%2Fcss%3Ffamily%3DUbuntu;fontSize=16;" vertex="1" parent="4eZcD29v7aRzUJQJVhYH-70">
          <mxGeometry x="100" y="30" width="50" height="40" as="geometry" />
        </mxCell>
        <mxCell id="4eZcD29v7aRzUJQJVhYH-74" value="[0] : int" style="rounded=0;whiteSpace=wrap;html=1;fontFamily=Ubuntu;fontSource=https%3A%2F%2Ffonts.googleapis.com%2Fcss%3Ffamily%3DUbuntu;fontSize=14;" vertex="1" parent="4eZcD29v7aRzUJQJVhYH-70">
          <mxGeometry y="70" width="50" height="20" as="geometry" />
        </mxCell>
        <mxCell id="4eZcD29v7aRzUJQJVhYH-75" value="[1] : int" style="rounded=0;whiteSpace=wrap;html=1;fontFamily=Ubuntu;fontSource=https%3A%2F%2Ffonts.googleapis.com%2Fcss%3Ffamily%3DUbuntu;fontSize=14;" vertex="1" parent="4eZcD29v7aRzUJQJVhYH-70">
          <mxGeometry x="50" y="70" width="50" height="20" as="geometry" />
        </mxCell>
        <mxCell id="4eZcD29v7aRzUJQJVhYH-76" value="[2] : int" style="rounded=0;whiteSpace=wrap;html=1;fontFamily=Ubuntu;fontSource=https%3A%2F%2Ffonts.googleapis.com%2Fcss%3Ffamily%3DUbuntu;fontSize=14;" vertex="1" parent="4eZcD29v7aRzUJQJVhYH-70">
          <mxGeometry x="100" y="70" width="50" height="20" as="geometry" />
        </mxCell>
        <mxCell id="4eZcD29v7aRzUJQJVhYH-77" value="int length = 3" style="rounded=0;whiteSpace=wrap;html=1;fontFamily=Ubuntu;fontSource=https%3A%2F%2Ffonts.googleapis.com%2Fcss%3Ffamily%3DUbuntu;fontSize=17;" vertex="1" parent="4eZcD29v7aRzUJQJVhYH-70">
          <mxGeometry y="90" width="150" height="30" as="geometry" />
        </mxCell>
        <mxCell id="4eZcD29v7aRzUJQJVhYH-78" value="0xAF14" style="rounded=0;whiteSpace=wrap;html=1;fontFamily=Ubuntu;fontSource=https%3A%2F%2Ffonts.googleapis.com%2Fcss%3Ffamily%3DUbuntu;fontSize=17;fillColor=#d5e8d4;strokeColor=#82b366;" vertex="1" parent="4eZcD29v7aRzUJQJVhYH-70">
          <mxGeometry width="150" height="30" as="geometry" />
        </mxCell>
        <mxCell id="4eZcD29v7aRzUJQJVhYH-79" value="..." style="rounded=0;whiteSpace=wrap;html=1;fontFamily=Ubuntu;fontSource=https%3A%2F%2Ffonts.googleapis.com%2Fcss%3Ffamily%3DUbuntu;fontSize=17;" vertex="1" parent="4eZcD29v7aRzUJQJVhYH-70">
          <mxGeometry y="120" width="150" height="30" as="geometry" />
        </mxCell>
        <mxCell id="4eZcD29v7aRzUJQJVhYH-81" value="" style="group" vertex="1" connectable="0" parent="1">
          <mxGeometry x="510" y="510" width="150" height="150" as="geometry" />
        </mxCell>
        <mxCell id="4eZcD29v7aRzUJQJVhYH-82" value="6" style="rounded=0;whiteSpace=wrap;html=1;fontFamily=Ubuntu;fontSource=https%3A%2F%2Ffonts.googleapis.com%2Fcss%3Ffamily%3DUbuntu;fontSize=16;" vertex="1" parent="4eZcD29v7aRzUJQJVhYH-81">
          <mxGeometry y="30" width="50" height="40" as="geometry" />
        </mxCell>
        <mxCell id="4eZcD29v7aRzUJQJVhYH-83" value="2" style="rounded=0;whiteSpace=wrap;html=1;fontFamily=Ubuntu;fontSource=https%3A%2F%2Ffonts.googleapis.com%2Fcss%3Ffamily%3DUbuntu;fontSize=16;" vertex="1" parent="4eZcD29v7aRzUJQJVhYH-81">
          <mxGeometry x="50" y="30" width="50" height="40" as="geometry" />
        </mxCell>
        <mxCell id="4eZcD29v7aRzUJQJVhYH-84" value="8" style="rounded=0;whiteSpace=wrap;html=1;fontFamily=Ubuntu;fontSource=https%3A%2F%2Ffonts.googleapis.com%2Fcss%3Ffamily%3DUbuntu;fontSize=16;" vertex="1" parent="4eZcD29v7aRzUJQJVhYH-81">
          <mxGeometry x="100" y="30" width="50" height="40" as="geometry" />
        </mxCell>
        <mxCell id="4eZcD29v7aRzUJQJVhYH-85" value="[0] : int" style="rounded=0;whiteSpace=wrap;html=1;fontFamily=Ubuntu;fontSource=https%3A%2F%2Ffonts.googleapis.com%2Fcss%3Ffamily%3DUbuntu;fontSize=14;" vertex="1" parent="4eZcD29v7aRzUJQJVhYH-81">
          <mxGeometry y="70" width="50" height="20" as="geometry" />
        </mxCell>
        <mxCell id="4eZcD29v7aRzUJQJVhYH-86" value="[1] : int" style="rounded=0;whiteSpace=wrap;html=1;fontFamily=Ubuntu;fontSource=https%3A%2F%2Ffonts.googleapis.com%2Fcss%3Ffamily%3DUbuntu;fontSize=14;" vertex="1" parent="4eZcD29v7aRzUJQJVhYH-81">
          <mxGeometry x="50" y="70" width="50" height="20" as="geometry" />
        </mxCell>
        <mxCell id="4eZcD29v7aRzUJQJVhYH-87" value="[2] : int" style="rounded=0;whiteSpace=wrap;html=1;fontFamily=Ubuntu;fontSource=https%3A%2F%2Ffonts.googleapis.com%2Fcss%3Ffamily%3DUbuntu;fontSize=14;" vertex="1" parent="4eZcD29v7aRzUJQJVhYH-81">
          <mxGeometry x="100" y="70" width="50" height="20" as="geometry" />
        </mxCell>
        <mxCell id="4eZcD29v7aRzUJQJVhYH-88" value="int length = 3" style="rounded=0;whiteSpace=wrap;html=1;fontFamily=Ubuntu;fontSource=https%3A%2F%2Ffonts.googleapis.com%2Fcss%3Ffamily%3DUbuntu;fontSize=17;" vertex="1" parent="4eZcD29v7aRzUJQJVhYH-81">
          <mxGeometry y="90" width="150" height="30" as="geometry" />
        </mxCell>
        <mxCell id="4eZcD29v7aRzUJQJVhYH-89" value="0xAF15" style="rounded=0;whiteSpace=wrap;html=1;fontFamily=Ubuntu;fontSource=https%3A%2F%2Ffonts.googleapis.com%2Fcss%3Ffamily%3DUbuntu;fontSize=17;fillColor=#d5e8d4;strokeColor=#82b366;" vertex="1" parent="4eZcD29v7aRzUJQJVhYH-81">
          <mxGeometry width="150" height="30" as="geometry" />
        </mxCell>
        <mxCell id="4eZcD29v7aRzUJQJVhYH-90" value="..." style="rounded=0;whiteSpace=wrap;html=1;fontFamily=Ubuntu;fontSource=https%3A%2F%2Ffonts.googleapis.com%2Fcss%3Ffamily%3DUbuntu;fontSize=17;" vertex="1" parent="4eZcD29v7aRzUJQJVhYH-81">
          <mxGeometry y="120" width="150" height="30" as="geometry" />
        </mxCell>
        <mxCell id="4eZcD29v7aRzUJQJVhYH-93" value="3" style="rounded=0;whiteSpace=wrap;html=1;fontFamily=Ubuntu;fontSource=https%3A%2F%2Ffonts.googleapis.com%2Fcss%3Ffamily%3DUbuntu;fontSize=16;" vertex="1" parent="1">
          <mxGeometry x="680" y="540" width="50" height="40" as="geometry" />
        </mxCell>
        <mxCell id="4eZcD29v7aRzUJQJVhYH-94" value="1" style="rounded=0;whiteSpace=wrap;html=1;fontFamily=Ubuntu;fontSource=https%3A%2F%2Ffonts.googleapis.com%2Fcss%3Ffamily%3DUbuntu;fontSize=16;" vertex="1" parent="1">
          <mxGeometry x="730" y="540" width="50" height="40" as="geometry" />
        </mxCell>
        <mxCell id="4eZcD29v7aRzUJQJVhYH-95" value="1" style="rounded=0;whiteSpace=wrap;html=1;fontFamily=Ubuntu;fontSource=https%3A%2F%2Ffonts.googleapis.com%2Fcss%3Ffamily%3DUbuntu;fontSize=16;" vertex="1" parent="1">
          <mxGeometry x="780" y="540" width="50" height="40" as="geometry" />
        </mxCell>
        <mxCell id="4eZcD29v7aRzUJQJVhYH-96" value="[0] : int" style="rounded=0;whiteSpace=wrap;html=1;fontFamily=Ubuntu;fontSource=https%3A%2F%2Ffonts.googleapis.com%2Fcss%3Ffamily%3DUbuntu;fontSize=14;" vertex="1" parent="1">
          <mxGeometry x="680" y="580" width="50" height="20" as="geometry" />
        </mxCell>
        <mxCell id="4eZcD29v7aRzUJQJVhYH-97" value="[1] : int" style="rounded=0;whiteSpace=wrap;html=1;fontFamily=Ubuntu;fontSource=https%3A%2F%2Ffonts.googleapis.com%2Fcss%3Ffamily%3DUbuntu;fontSize=14;" vertex="1" parent="1">
          <mxGeometry x="730" y="580" width="50" height="20" as="geometry" />
        </mxCell>
        <mxCell id="4eZcD29v7aRzUJQJVhYH-98" value="[2] : int" style="rounded=0;whiteSpace=wrap;html=1;fontFamily=Ubuntu;fontSource=https%3A%2F%2Ffonts.googleapis.com%2Fcss%3Ffamily%3DUbuntu;fontSize=14;" vertex="1" parent="1">
          <mxGeometry x="780" y="580" width="50" height="20" as="geometry" />
        </mxCell>
        <mxCell id="4eZcD29v7aRzUJQJVhYH-99" value="int length = 4" style="rounded=0;whiteSpace=wrap;html=1;fontFamily=Ubuntu;fontSource=https%3A%2F%2Ffonts.googleapis.com%2Fcss%3Ffamily%3DUbuntu;fontSize=17;" vertex="1" parent="1">
          <mxGeometry x="680" y="600" width="200" height="30" as="geometry" />
        </mxCell>
        <mxCell id="4eZcD29v7aRzUJQJVhYH-100" value="0xAF16" style="rounded=0;whiteSpace=wrap;html=1;fontFamily=Ubuntu;fontSource=https%3A%2F%2Ffonts.googleapis.com%2Fcss%3Ffamily%3DUbuntu;fontSize=17;fillColor=#d5e8d4;strokeColor=#82b366;" vertex="1" parent="1">
          <mxGeometry x="680" y="510" width="200" height="30" as="geometry" />
        </mxCell>
        <mxCell id="4eZcD29v7aRzUJQJVhYH-101" value="..." style="rounded=0;whiteSpace=wrap;html=1;fontFamily=Ubuntu;fontSource=https%3A%2F%2Ffonts.googleapis.com%2Fcss%3Ffamily%3DUbuntu;fontSize=17;" vertex="1" parent="1">
          <mxGeometry x="680" y="630" width="200" height="30" as="geometry" />
        </mxCell>
        <mxCell id="4eZcD29v7aRzUJQJVhYH-112" value="10" style="rounded=0;whiteSpace=wrap;html=1;fontFamily=Ubuntu;fontSource=https%3A%2F%2Ffonts.googleapis.com%2Fcss%3Ffamily%3DUbuntu;fontSize=16;" vertex="1" parent="1">
          <mxGeometry x="830" y="540" width="50" height="40" as="geometry" />
        </mxCell>
        <mxCell id="4eZcD29v7aRzUJQJVhYH-114" value="[3] : int" style="rounded=0;whiteSpace=wrap;html=1;fontFamily=Ubuntu;fontSource=https%3A%2F%2Ffonts.googleapis.com%2Fcss%3Ffamily%3DUbuntu;fontSize=14;" vertex="1" parent="1">
          <mxGeometry x="830" y="580" width="50" height="20" as="geometry" />
        </mxCell>
        <mxCell id="4eZcD29v7aRzUJQJVhYH-117" value="" style="endArrow=classic;html=1;rounded=0;exitX=0.5;exitY=1;exitDx=0;exitDy=0;entryX=0.5;entryY=0;entryDx=0;entryDy=0;" edge="1" parent="1" source="4eZcD29v7aRzUJQJVhYH-10" target="4eZcD29v7aRzUJQJVhYH-89">
          <mxGeometry width="50" height="50" relative="1" as="geometry">
            <mxPoint x="430" y="400" as="sourcePoint" />
            <mxPoint x="480" y="350" as="targetPoint" />
          </mxGeometry>
        </mxCell>
      </root>
    </mxGraphModel>
  </diagram>
</mxfile>
